<svg width="1200" height="900" viewBox="0 0 1200 900" fill="none" xmlns="http://www.w3.org/2000/svg">
  <!-- Background -->
  <rect width="1200" height="900" fill="#F2F5F9"/>
  
  <!-- Header -->
  <rect width="1200" height="80" fill="#FFFFFF"/>
  <rect x="0" y="79" width="1200" height="1" fill="#eaeef3"/>
  
  <!-- Logo -->
  <rect x="40" y="20" width="200" height="40" rx="8" fill="#0C1117"/>
  <text x="140" y="45" text-anchor="middle" font-family="Space Mono, monospace" font-size="16" font-weight="700" fill="#FFFFFF">Kagemann Creatives</text>
  
  <!-- Navigation -->
  <rect x="800" y="30" width="60" height="20" rx="4" fill="#5B8DEF"/>
  <rect x="880" y="30" width="60" height="20" rx="4" fill="#5B8DEF"/>
  <rect x="960" y="30" width="60" height="20" rx="4" fill="#5B8DEF"/>
  
  <!-- Hero Section -->
  <rect x="0" y="80" width="1200" height="300" fill="#0C1117"/>
  <text x="600" y="180" text-anchor="middle" font-family="Space Mono, monospace" font-size="48" font-weight="700" fill="#FFFFFF">Beautiful, fast websites</text>
  <text x="600" y="220" text-anchor="middle" font-family="Work Sans, sans-serif" font-size="24" fill="#F2F5F9">for growing businesses</text>
  <rect x="500" y="260" width="120" height="40" rx="12" fill="#5B8DEF"/>
  <rect x="640" y="260" width="120" height="40" rx="12" fill="transparent" stroke="#FFFFFF" stroke-width="2"/>
  
  <!-- Services Section -->
  <rect x="0" y="380" width="1200" height="200" fill="#FFFFFF"/>
  <text x="600" y="420" text-anchor="middle" font-family="Space Mono, monospace" font-size="32" font-weight="700" fill="#0C1117">Services & Packages</text>
  
  <!-- Service Cards -->
  <rect x="100" y="450" width="300" height="120" rx="12" fill="#F2F5F9" stroke="#eaeef3" stroke-width="1"/>
  <rect x="450" y="450" width="300" height="120" rx="12" fill="#F2F5F9" stroke="#eaeef3" stroke-width="1"/>
  <rect x="800" y="450" width="300" height="120" rx="12" fill="#F2F5F9" stroke="#eaeef3" stroke-width="1"/>
  
  <!-- Footer -->
  <rect x="0" y="580" width="1200" height="320" fill="#0C1117"/>
  <text x="600" y="650" text-anchor="middle" font-family="Space Mono, monospace" font-size="24" font-weight="700" fill="#FFFFFF">Kagemann Creatives</text>
  <text x="600" y="680" text-anchor="middle" font-family="Work Sans, sans-serif" font-size="16" fill="#F2F5F9">Design & development for SMBs. Copenhagen & remote.</text>
  <text x="600" y="850" text-anchor="middle" font-family="Work Sans, sans-serif" font-size="14" fill="#F2F5F9">© 2024 Kagemann Creatives</text>
</svg>
